<?xml version="1.0" encoding="utf-8"?>
<!-- Generator: Adobe Illustrator 18.1.1, SVG Export Plug-In . SVG Version: 6.00 Build 0)  -->
<!DOCTYPE svg PUBLIC "-//W3C//DTD SVG 1.1//EN" "http://www.w3.org/Graphics/SVG/1.1/DTD/svg11.dtd">
<svg version="1.1" id="Layer_1" xmlns="http://www.w3.org/2000/svg" xmlns:xlink="http://www.w3.org/1999/xlink" x="0px" y="0px"
	 viewBox="0 0 20 20" style="enable-background:new 0 0 20 20;" xml:space="preserve">
<path d="M10,0C4.47719,0,0,4.477138,0,10c0,5.522827,4.47719,10,10,10s10-4.477173,10-10C20,4.477138,15.52281,0,10,0z
	 M16.782087,8.806361l-5.714286,6.428572C10.796596,15.5399,10.407924,15.714286,10,15.714286S9.203404,15.5399,8.932199,15.234933
	L3.217913,8.806361c-0.523995-0.589844-0.470982-1.492745,0.118583-2.01702c0.590123-0.523995,1.492746-0.470982,2.01702,0.118583
	L10,12.135324l4.646484-5.227399c0.524553-0.589565,1.426897-0.642578,2.017019-0.118583
	C17.253069,7.313616,17.306082,8.216517,16.782087,8.806361z"/>
</svg>
