<?xml version="1.0" encoding="utf-8"?>
<!-- Generator: Adobe Illustrator 19.1.0, SVG Export Plug-In . SVG Version: 6.00 Build 0)  -->
<svg version="1.1" id="Layer_1" xmlns="http://www.w3.org/2000/svg" xmlns:xlink="http://www.w3.org/1999/xlink" x="0px" y="0px"
	 viewBox="0 0 40 40" enable-background="new 0 0 40 40" xml:space="preserve">
<g>
	<path fill="#CCCCC8" d="M20,2.6c-9.7,0-17.5,7.8-17.5,17.5S10.3,37.6,20,37.6s17.5-7.8,17.5-17.5S29.7,2.6,20,2.6z M18.7,30.5
		c-0.4,0.4-1,0.7-1.6,0.7c0,0,0,0-0.1,0c-0.6,0-1.2-0.3-1.7-0.8l-5.8-6.5c-0.9-1-0.8-2.4,0.2-3.3c1-0.9,2.4-0.8,3.3,0.2l4.2,4.7
		L30,12.6c0.9-0.9,2.4-0.9,3.3,0c0.9,0.9,0.9,2.4,0,3.3L18.7,30.5z"/>
</g>
</svg>
