<?xml version="1.0" encoding="utf-8"?>
<!-- Generator: Adobe Illustrator 19.1.0, SVG Export Plug-In . SVG Version: 6.00 Build 0)  -->
<svg version="1.1" id="Layer_1" xmlns="http://www.w3.org/2000/svg" xmlns:xlink="http://www.w3.org/1999/xlink" x="0px" y="0px"
	 viewBox="0 0 40 40" enable-background="new 0 0 40 40" xml:space="preserve">
<g>
	<g>
		<g>
			<g>
				<path fill="#CCCCC8" d="M20,2.5C10.3,2.5,2.5,10.3,2.5,20c0,9.7,7.8,17.5,17.5,17.5S37.5,29.7,37.5,20
					C37.5,10.3,29.7,2.5,20,2.5z M24.2,27.7L20,23.5l-4.2,4.2c-1.1,1.1-2.5,1.1-3.5,0c-1.1-1.1-1.1-2.4,0-3.5l4.2-4.2l-4.2-4.2
					c-1.1-1.1-1.1-2.5,0-3.5c1.1-1.1,2.4-1.1,3.5,0l4.2,4.2l4.2-4.2c1.1-1.1,2.5-1.1,3.5,0c1.1,1.1,1.1,2.4,0,3.5L23.5,20l4.2,4.2
					c1.1,1.1,1.1,2.5,0,3.5C26.7,28.8,25.3,28.8,24.2,27.7z"/>
			</g>
		</g>
	</g>
</g>
</svg>
