<?xml version="1.0" encoding="utf-8"?>
<!-- Generator: Adobe Illustrator 18.1.1, SVG Export Plug-In . SVG Version: 6.00 Build 0)  -->
<!DOCTYPE svg PUBLIC "-//W3C//DTD SVG 1.1//EN" "http://www.w3.org/Graphics/SVG/1.1/DTD/svg11.dtd">
<svg version="1.1" id="Layer_1" xmlns="http://www.w3.org/2000/svg" xmlns:xlink="http://www.w3.org/1999/xlink" x="0px" y="0px"
	 viewBox="0 0 20 20" style="enable-background:new 0 0 20 20;" xml:space="preserve">
<path d="M14.783936,7.07782C15.234904,7.729187,15.5,8.518555,15.5,9.369039v0.071432
	c0,1.063639-0.410237,2.067464-1.155131,2.826538c-0.084412,0.086019-1.087911,1.067261-1.963928,1.923177v1.762207
	c0,0,3.126974-3.052734,3.273723-3.202271c0.625977-0.637858,1.012003-1.512004,1.012003-2.476318v-0.071411
	C16.666666,8.847107,15.903361,7.671285,14.783936,7.07782z"/>
<path d="M13.117269,6.244486c0.450969,0.651367,0.716064,1.440735,0.716064,2.291219v0.071431
	c0,1.06364-0.410237,2.067465-1.15513,2.826538c-0.084412,0.08602-1.087912,1.067261-1.963928,1.923178v1.762207
	c0,0,3.126973-3.052734,3.273722-3.202271C14.613973,11.278931,15,10.404785,15,9.440471V9.36906
	C15,8.013774,14.236694,6.837952,13.117269,6.244486z"/>
<path d="M9.797619,5H6.869048C4.916324,5,3.333333,6.582991,3.333333,8.535715v0.071428
	c0,1.952715,1.58299,3.535714,3.535714,3.535714h2.178571v2.142858c0,0,3.126962-3.052717,3.273708-3.202253
	c0.625967-0.63787,1.012006-1.512015,1.012006-2.476318V8.535715C13.333333,6.582991,11.750343,5,9.797619,5z"/>
</svg>
