<?xml version="1.0" encoding="utf-8"?>
<!-- Generator: Adobe Illustrator 18.1.1, SVG Export Plug-In . SVG Version: 6.00 Build 0)  -->
<!DOCTYPE svg PUBLIC "-//W3C//DTD SVG 1.1//EN" "http://www.w3.org/Graphics/SVG/1.1/DTD/svg11.dtd">
<svg version="1.1" id="Layer_1" xmlns="http://www.w3.org/2000/svg" xmlns:xlink="http://www.w3.org/1999/xlink" x="0px" y="0px"
	 viewBox="0 0 20 20" style="enable-background:new 0 0 20 20;" xml:space="preserve">
<path d="M10,0C4.477173,0,0,4.477112,0,10c0,5.522827,4.477173,10,10,10s10-4.477173,10-10C20,4.477112,15.522827,0,10,0z
	 M9.047607,14.285706v-2.142883H6.869019c-1.952698,0-3.535706-1.583008-3.535706-3.535706V8.535706
	C3.333313,6.582947,4.916321,5,6.869019,5h2.928589c1.952759,0,3.535706,1.582947,3.535706,3.535706v0.071411
	c0,0.964294-0.386047,1.83844-1.011963,2.476318C12.174561,11.232971,9.047607,14.285706,9.047607,14.285706z M10.714294,13.356812
	c0.875977-0.855896,1.879517-1.837158,1.963928-1.923157c0.744873-0.759094,1.15509-1.762878,1.15509-2.826538V8.535706
	c0-0.850525-0.265076-1.639893-0.716064-2.29126C14.236694,6.837952,15,8.013733,15,9.369019V9.44043
	c0,0.964355-0.386047,1.838501-1.012024,2.476318c-0.146729,0.149536-3.273682,3.202271-3.273682,3.202271V13.356812z
	 M16.666687,10.273804c0,0.964294-0.386047,1.83844-1.012024,2.476318c-0.146729,0.149536-3.273743,3.202271-3.273743,3.202271
	v-1.762207c0.876038-0.855957,1.879517-1.837158,1.963928-1.923218C15.089783,11.507935,15.5,10.504089,15.5,9.44043V9.369019
	c0-0.850464-0.265076-1.639832-0.716064-2.291199c1.119446,0.593445,1.882751,1.769287,1.882751,3.124573V10.273804z"/>
</svg>
