<?xml version="1.0" encoding="utf-8"?>
<!-- Generator: Adobe Illustrator 18.1.1, SVG Export Plug-In . SVG Version: 6.00 Build 0)  -->
<!DOCTYPE svg PUBLIC "-//W3C//DTD SVG 1.1//EN" "http://www.w3.org/Graphics/SVG/1.1/DTD/svg11.dtd">
<svg version="1.1" id="Layer_1" xmlns="http://www.w3.org/2000/svg" xmlns:xlink="http://www.w3.org/1999/xlink" x="0px" y="0px"
	 viewBox="0 0 20 20" style="enable-background:new 0 0 20 20;" xml:space="preserve">
<path d="M10,0C4.477173,0,0,4.477112,0,10c0,5.522827,4.477173,10,10,10s10-4.477173,10-10C20,4.477112,15.522827,0,10,0z
	 M15,14.166626H5V12.75h10V14.166626z M15.833313,9.166626c-0.046326,0-0.091858-0.00293-0.136902-0.007812L15,12.333313H5
	l-0.696411-3.1745C4.258545,9.163696,4.212952,9.166626,4.166687,9.166626c-0.690369,0-1.25-0.559631-1.25-1.25
	c0-0.690308,0.559631-1.25,1.25-1.25c0.690308,0,1.25,0.559692,1.25,1.25c0,0.411133-0.199402,0.77478-0.505798,1.002625
	C5.326843,9.078491,5.778015,9.166626,6.25,9.166626c1.639282,0,3.02887-1.053589,3.538574-2.519165
	C9.199097,6.546753,8.75,6.03479,8.75,5.416626c0-0.690308,0.559631-1.25,1.25-1.25s1.25,0.559692,1.25,1.25
	c0,0.618164-0.449097,1.130127-1.038574,1.230835C10.72113,8.113037,12.110718,9.166626,13.75,9.166626
	c0.471985,0,0.923157-0.088135,1.339111-0.247375c-0.306396-0.227844-0.505798-0.591492-0.505798-1.002625
	c0-0.690308,0.559631-1.25,1.25-1.25s1.25,0.559692,1.25,1.25C17.083313,8.606995,16.523682,9.166626,15.833313,9.166626z"/>
</svg>
