<?xml version="1.0" encoding="utf-8"?>
<!-- Generator: Adobe Illustrator 18.1.1, SVG Export Plug-In . SVG Version: 6.00 Build 0)  -->
<!DOCTYPE svg PUBLIC "-//W3C//DTD SVG 1.1//EN" "http://www.w3.org/Graphics/SVG/1.1/DTD/svg11.dtd">
<svg version="1.1" id="Layer_1" xmlns="http://www.w3.org/2000/svg" xmlns:xlink="http://www.w3.org/1999/xlink" x="0px" y="0px"
	 viewBox="0 0 20 20" style="enable-background:new 0 0 20 20;" xml:space="preserve">
<path d="M15.833333,6.666667c-0.690359,0-1.25,0.559652-1.25,1.25c0,0.411133,0.199381,0.774781,0.505768,1.002604
	c-0.415965,0.159262-0.867106,0.247396-1.339102,0.247396c-1.639261,0-3.028879-1.053589-3.538553-2.519206
	c0.589437-0.100667,1.038553-0.612671,1.038553-1.230794c0-0.690348-0.559641-1.25-1.25-1.25c-0.690358,0-1.25,0.559652-1.25,1.25
	c0,0.618124,0.449118,1.130127,1.038554,1.230794C9.278879,8.113078,7.889261,9.166667,6.25,9.166667
	c-0.471995,0-0.923137-0.088135-1.339101-0.247396C5.217285,8.691447,5.416666,8.3278,5.416666,7.916667
	c0-0.690348-0.559641-1.25-1.25-1.25s-1.25,0.559652-1.25,1.25s0.559642,1.25,1.25,1.25
	c0.046316,0,0.091898-0.00293,0.136902-0.007854L5,12.333333h10l0.696432-3.17452
	c0.045003,0.004924,0.090586,0.007854,0.136902,0.007854c0.690358,0,1.249999-0.559652,1.249999-1.25
	S16.523691,6.666667,15.833333,6.666667z"/>
<rect x="4.999999" y="12.75" width="10" height="1.416667"/>
</svg>
