<?xml version="1.0" encoding="utf-8"?>
<!-- Generator: Adobe Illustrator 18.1.1, SVG Export Plug-In . SVG Version: 6.00 Build 0)  -->
<!DOCTYPE svg PUBLIC "-//W3C//DTD SVG 1.1//EN" "http://www.w3.org/Graphics/SVG/1.1/DTD/svg11.dtd">
<svg version="1.1" id="Layer_1" xmlns="http://www.w3.org/2000/svg" xmlns:xlink="http://www.w3.org/1999/xlink" x="0px" y="0px"
	 viewBox="0 0 20 20" style="enable-background:new 0 0 20 20;" xml:space="preserve">
<path d="M10,0C4.477173,0,0,4.477112,0,10c0,5.522827,4.477173,10,10,10s10-4.477173,10-10C20,4.477112,15.522827,0,10,0z
	 M5.333313,15.833313c0,0.184082-0.149231,0.333313-0.333313,0.333313s-0.333313-0.149231-0.333313-0.333313V5
	c0-0.184082,0.149231-0.333374,0.333313-0.333374S5.333313,4.815918,5.333313,5V15.833313z M15.833313,12.368774
	c0,0-2.759888-1.233643-5-0.238098c-2.142822,0.952393-5-0.238098-5-0.238098V5.225952c0,0,2.857178,1.428528,5,0.238098
	c2.049927-1.138855,5,0.238098,5,0.238098V12.368774z"/>
</svg>
