<?xml version="1.0" encoding="utf-8"?>
<!-- Generator: Adobe Illustrator 18.0.0, SVG Export Plug-In . SVG Version: 6.00 Build 0)  -->
<!DOCTYPE svg PUBLIC "-//W3C//DTD SVG 1.1//EN" "http://www.w3.org/Graphics/SVG/1.1/DTD/svg11.dtd">
<svg version="1.1" id="Layer_1" xmlns="http://www.w3.org/2000/svg" xmlns:xlink="http://www.w3.org/1999/xlink" x="0px" y="0px"
	 viewBox="0 0 112 112" enable-background="new 0 0 112 112" xml:space="preserve">
<circle cx="56" cy="56" r="56"/>
<rect x="56" y="56" width="0" height="0"/>
<path fill="#FFFFFF" d="M76,50v-4.2C76,34.9,67.1,26,56.2,26h-0.3C44.9,26,36,34.9,36,45.8V50c-2.2,0-4,1.8-4,4v16
	c0,8.8,7.2,16,16,16h16c8.8,0,16-7.2,16-16V54C80,51.8,78.2,50,76,50z M44,50v-4.2C44,39.3,49.3,34,55.8,34h0.3
	C62.7,34,68,39.3,68,45.8V50H44z"/>
</svg>
