<?xml version="1.0" encoding="utf-8"?>
<!-- Generator: Adobe Illustrator 18.0.0, SVG Export Plug-In . SVG Version: 6.00 Build 0)  -->
<!DOCTYPE svg PUBLIC "-//W3C//DTD SVG 1.1//EN" "http://www.w3.org/Graphics/SVG/1.1/DTD/svg11.dtd">
<svg version="1.1" id="Layer_1" xmlns="http://www.w3.org/2000/svg" xmlns:xlink="http://www.w3.org/1999/xlink" x="0px" y="0px"
	 viewBox="0 0 112 112" enable-background="new 0 0 112 112" xml:space="preserve">
<circle cx="56" cy="56" r="56"/>
<path fill="#FFFFFF" d="M56.7,24c-8.8,0-16,7.2-16,16c0,6.7,4.1,12.5,10,14.8l0,27.2l6,6l6-6l-4-4l4-4l-4-4l4-4l-4-4l4-4v-3.2
	c5.9-2.4,10-8.1,10-14.8C72.7,31.2,65.5,24,56.7,24z M56.7,36.3c-2.4,0-4.3-1.9-4.3-4.3s1.9-4.3,4.3-4.3c2.4,0,4.3,1.9,4.3,4.3
	S59,36.3,56.7,36.3z"/>
</svg>
