<?xml version="1.0" encoding="utf-8"?>
<!-- Generator: Adobe Illustrator 18.0.0, SVG Export Plug-In . SVG Version: 6.00 Build 0)  -->
<!DOCTYPE svg PUBLIC "-//W3C//DTD SVG 1.1//EN" "http://www.w3.org/Graphics/SVG/1.1/DTD/svg11.dtd">
<svg version="1.1" id="Layer_1" xmlns="http://www.w3.org/2000/svg" xmlns:xlink="http://www.w3.org/1999/xlink" x="0px" y="0px"
	 viewBox="0 0 112 112" enable-background="new 0 0 112 112" xml:space="preserve">
<circle cx="56" cy="56" r="56"/>
<g>
	<path fill="#FFFFFF" d="M28.2,40.8h-3.7l3.5-6h6.6v42.6h-6.4V40.8z"/>
	<path fill="#FFFFFF" d="M47,55.2c-3.1-2.2-4.7-5.2-4.7-9c0-3.5,1.2-6.3,3.6-8.7c2.4-2.3,5.4-3.5,8.9-3.5c3.5,0,6.5,1.2,8.8,3.5
		c2.4,2.3,3.5,5.2,3.5,8.7c0,3.7-1.6,6.6-4.7,9c1.7,0.9,3.1,2.3,4,4c1,1.8,1.5,3.8,1.5,6c0,3.8-1.2,6.9-3.7,9.3
		c-2.5,2.4-5.6,3.6-9.5,3.6c-3.9,0-7.2-1.2-9.7-3.6c-2.6-2.4-3.9-5.5-3.9-9.2C41.2,60.4,43.1,57.1,47,55.2z M47.6,65
		c0,2,0.7,3.7,2,5.1c1.4,1.4,3,2.1,5,2.1c1.9,0,3.6-0.7,5-2.1c1.4-1.4,2.1-3.1,2.1-5c0-2-0.7-3.6-2.1-5c-1.4-1.4-3-2.1-5-2.1
		c-1.9,0-3.6,0.7-5,2.1C48.2,61.4,47.6,63.1,47.6,65z M48.3,46.1c0,1.8,0.6,3.3,1.8,4.6c1.3,1.3,2.8,1.9,4.5,1.9
		c1.7,0,3.2-0.6,4.5-1.9c1.3-1.3,1.9-2.7,1.9-4.5c0-1.7-0.6-3.2-1.9-4.5c-1.3-1.3-2.7-1.9-4.5-1.9c-1.7,0-3.2,0.6-4.5,1.9
		C49,42.9,48.3,44.4,48.3,46.1z"/>
	<path fill="#FFFFFF" d="M71.2,56.8v-5.6h5.6v-5.6h5.6v5.6H88v5.6h-5.6v5.6h-5.6v-5.6H71.2z"/>
</g>
</svg>
