<?xml version="1.0" encoding="utf-8"?>
<!-- Generator: Adobe Illustrator 18.0.0, SVG Export Plug-In . SVG Version: 6.00 Build 0)  -->
<!DOCTYPE svg PUBLIC "-//W3C//DTD SVG 1.1//EN" "http://www.w3.org/Graphics/SVG/1.1/DTD/svg11.dtd">
<svg version="1.1" id="Layer_1" xmlns="http://www.w3.org/2000/svg" xmlns:xlink="http://www.w3.org/1999/xlink" x="0px" y="0px"
	 viewBox="0 0 112 112" enable-background="new 0 0 112 112" xml:space="preserve">
<circle cx="56" cy="56" r="56"/>
<path fill="#FFFFFF" d="M68,40c0-6.6-5.4-12-12-12s-12,5.4-12,12c0,1.4,0,6.6,0,8c0,6.6,5.4,12,12,12s12-5.4,12-12
	C68,46.6,68,41.4,68,40z"/>
<path fill="#FFFFFF" d="M56,88c9.5,0,18-4.1,23.8-10.7C74.9,69.3,66.1,64,56,64s-18.9,5.3-23.8,13.3C38,83.9,46.5,88,56,88z"/>
</svg>
