<?xml version="1.0" encoding="utf-8"?>
<!-- Generator: Adobe Illustrator 18.0.0, SVG Export Plug-In . SVG Version: 6.00 Build 0)  -->
<!DOCTYPE svg PUBLIC "-//W3C//DTD SVG 1.1//EN" "http://www.w3.org/Graphics/SVG/1.1/DTD/svg11.dtd">
<svg version="1.1" id="Layer_1" xmlns="http://www.w3.org/2000/svg" xmlns:xlink="http://www.w3.org/1999/xlink" x="0px" y="0px"
	 viewBox="0 0 112 112" enable-background="new 0 0 112 112" xml:space="preserve">
<circle cx="56" cy="56" r="56"/>
<rect x="56" y="56" width="0" height="0"/>
<g>
	<path fill="#FFFFFF" d="M76.9,51c-4.8-3.5-11.4-5.7-18.7-5.9l3.2-15l10.4,2.2c0.1,2.6,2.3,4.8,5,4.8c2.8,0,5-2.2,5-5s-2.2-5-5-5
		c-2,0-3.6,1.1-4.5,2.8l-11.6-2.5c-0.3-0.1-0.7,0-0.9,0.2c-0.3,0.2-0.5,0.5-0.5,0.8l-3.5,16.5c0,0.1,0,0.2,0,0.3
		c-7.5,0.2-14.2,2.4-19.1,5.9c-1.3-1.2-3-2-4.8-2c-3.9,0-7,3.1-7,7c0,2.8,1.7,5.3,4.1,6.4c-0.1,0.7-0.2,1.4-0.2,2.1
		c0,10.8,12.5,19.5,28,19.5c6,0,11.5-1.3,16-3.5V66.6c-1.3,1.2-3.1,1.9-5,1.9c-4.1,0-7.5-3.4-7.5-7.5c0-4.1,3.4-7.5,7.5-7.5
		s7.5,3.4,7.5,7.5c0,0.1,0,10,0,18.1c5.8-3.6,9.5-8.8,9.5-14.6c0-0.7-0.1-1.4-0.2-2.1c2.5-1.1,4.2-3.5,4.2-6.4c0-3.9-3.1-7-7-7
		C79.9,49,78.2,49.8,76.9,51z M40.8,61c0-2.8,2.2-5,5-5c2.8,0,5,2.2,5,5c0,2.8-2.2,5-5,5C43.1,66,40.8,63.8,40.8,61z M66.9,72.4
		c0.5-0.5,1.3-0.5,1.8,0c0.5,0.5,0.5,1.3,0,1.8c-3.4,3.4-10,3.7-11.9,3.7c-1.9,0-8.5-0.3-11.9-3.7c-0.5-0.5-0.5-1.3,0-1.8
		c0.5-0.5,1.3-0.5,1.8,0c2.2,2.2,6.8,2.9,10,2.9S64.7,74.5,66.9,72.4z"/>
	<path fill="#FFFFFF" d="M62.8,61c0,2.8,2.2,5,5,5s5-2.2,5-5c0-2.8-2.2-5-5-5S62.8,58.2,62.8,61z"/>
</g>
</svg>
