<?xml version="1.0" encoding="utf-8"?>
<!-- Generator: Adobe Illustrator 19.1.0, SVG Export Plug-In . SVG Version: 6.00 Build 0)  -->
<svg version="1.1" id="Layer_1" xmlns="http://www.w3.org/2000/svg" xmlns:xlink="http://www.w3.org/1999/xlink" x="0px" y="0px"
	 viewBox="0 0 40 40" enable-background="new 0 0 40 40" xml:space="preserve">
<g>
	<path fill="#CCCCC8" d="M20,2.5C10.3,2.5,2.5,10.3,2.5,20S10.3,37.5,20,37.5S37.5,29.7,37.5,20S29.7,2.5,20,2.5z M7.5,20
		c0-6.9,5.6-12.5,12.5-12.5c2.5,0,4.9,0.8,6.9,2.1L9.6,26.9C8.3,24.9,7.5,22.5,7.5,20z M20,32.5c-2.5,0-4.9-0.8-6.9-2.1l17.3-17.3
		c1.3,2,2.1,4.3,2.1,6.9C32.5,26.9,26.9,32.5,20,32.5z"/>
</g>
</svg>
