<?xml version="1.0" encoding="utf-8"?>
<!-- Generator: Adobe Illustrator 19.1.0, SVG Export Plug-In . SVG Version: 6.00 Build 0)  -->
<svg version="1.1" id="Layer_1" xmlns="http://www.w3.org/2000/svg" xmlns:xlink="http://www.w3.org/1999/xlink" x="0px" y="0px"
	 viewBox="0 0 40 40" enable-background="new 0 0 40 40" xml:space="preserve">
<g>
	<g>
		<g>
			<path fill="#CCCCC8" d="M27.4,12.8c0,0.3,0.1,0.1,0.1,0.9c0,3.5-2.8,6.2-6.2,6.2c-4.8,0-8.7,3.9-8.7,8.7c0,4.7,2.5,8.7,8.3,8.7
				c6.6-0.4,11.7-5.8,11.7-12.5C32.5,20.8,30.1,16.4,27.4,12.8z"/>
		</g>
	</g>
	<path fill="#CCCCC8" d="M10.5,28.7c0-5.9,4.8-10.7,10.7-10.7c2.3,0,4.2-1.9,4.2-4.2c0-6.5-5.1-10.3-7.9-11.2
		C17.7,2.7,17.8,3,18,3.2c1.9,4,0.2,8.8-3.8,10.7c-1,0.5-6.6,3.9-6.6,11.1c0,3.8,1.7,7.1,4.3,9.4C11,32.8,10.5,30.9,10.5,28.7z"/>
</g>
</svg>
