<?xml version="1.0" encoding="utf-8"?>
<!-- Generator: Adobe Illustrator 18.1.1, SVG Export Plug-In . SVG Version: 6.00 Build 0)  -->
<!DOCTYPE svg PUBLIC "-//W3C//DTD SVG 1.1//EN" "http://www.w3.org/Graphics/SVG/1.1/DTD/svg11.dtd">
<svg version="1.1" id="Layer_1" xmlns="http://www.w3.org/2000/svg" xmlns:xlink="http://www.w3.org/1999/xlink" x="0px" y="0px"
	 viewBox="0 0 20 20" style="enable-background:new 0 0 20 20;" xml:space="preserve">
<path d="M10,0C4.477132,0,0,4.477152,0,10s4.477132,10,10,10s10-4.477153,10-10S15.522868,0,10,0z M11.333333,16.666626
	c0,0.736328-0.597005,1.333334-1.333333,1.333334s-1.333333-0.597006-1.333333-1.333334V9.999959
	c0-0.736328,0.597005-1.333333,1.333333-1.333333s1.333333,0.597005,1.333333,1.333333V16.666626z M10,6.666667
	C9.079509,6.666667,8.333333,5.920471,8.333333,5S9.079509,3.333333,10,3.333333S11.666667,4.079529,11.666667,5
	S10.920491,6.666667,10,6.666667z"/>
</svg>
