<?xml version="1.0" encoding="utf-8"?>
<!-- Generator: Adobe Illustrator 19.1.0, SVG Export Plug-In . SVG Version: 6.00 Build 0)  -->
<svg version="1.1" id="Layer_1" xmlns="http://www.w3.org/2000/svg" xmlns:xlink="http://www.w3.org/1999/xlink" x="0px" y="0px"
	 viewBox="0 0 40 40" enable-background="new 0 0 40 40" xml:space="preserve">
<g>
	<path fill="#CCCCC8" d="M20,2.5C10.3,2.5,2.5,10.3,2.5,20S10.3,37.5,20,37.5S37.5,29.7,37.5,20S29.7,2.5,20,2.5z M22.3,31.7
		c0,1.3-1,2.3-2.3,2.3s-2.3-1-2.3-2.3V20c0-1.3,1-2.3,2.3-2.3s2.3,1,2.3,2.3V31.7z M20,14.4c-1.7,0-3.1-1.4-3.1-3.1s1.4-3.1,3.1-3.1
		s3.1,1.4,3.1,3.1S21.7,14.4,20,14.4z"/>
</g>
</svg>
