<?xml version="1.0" encoding="utf-8"?>
<!-- Generator: Adobe Illustrator 18.1.1, SVG Export Plug-In . SVG Version: 6.00 Build 0)  -->
<!DOCTYPE svg PUBLIC "-//W3C//DTD SVG 1.1//EN" "http://www.w3.org/Graphics/SVG/1.1/DTD/svg11.dtd">
<svg version="1.1" id="Layer_1" xmlns="http://www.w3.org/2000/svg" xmlns:xlink="http://www.w3.org/1999/xlink" x="0px" y="0px"
	 viewBox="0 0 20 20" style="enable-background:new 0 0 20 20;" xml:space="preserve">
<path d="M7.509604,9.809682c0.092814-1.228464,1.071614-2.207275,2.30009-2.300069
	C8.787232,6.158976,7.167115,5.28595,5.34253,5.28595h-0.0566v0.05657C5.28593,7.167094,6.158977,8.787262,7.509604,9.809682z"/>
<path d="M7.509604,10.190318c-1.350626,1.02242-2.223673,2.642588-2.223673,4.467163v0.056569h0.0566
	c1.824585,0,3.444703-0.873027,4.467164-2.223663C8.581218,12.397593,7.602417,11.418773,7.509604,10.190318z"/>
<path d="M12.490397,10.190318c-0.092813,1.228455-1.071614,2.207275-2.300089,2.300069
	c1.022461,1.350636,2.642578,2.223663,4.467163,2.223663h0.0566v-0.056569
	C14.714071,12.832906,13.841024,11.212738,12.490397,10.190318z"/>
<path d="M14.657472,5.28595c-1.824585,0-3.444702,0.873026-4.467163,2.223663
	c1.228475,0.092794,2.207275,1.071605,2.300089,2.300069c1.350627-1.02242,2.223674-2.642588,2.223674-4.467163V5.28595H14.657472z"
	/>
<path d="M16.626669,9.960002c-0.674195-0.674205-1.478618-1.135641-2.331503-1.393779
	C13.962443,9.098622,13.546,9.582967,13.051677,10c0.494324,0.417043,0.910767,0.901378,1.243489,1.433777
	c0.852885-0.258138,1.657308-0.719574,2.331503-1.393779L16.666666,10L16.626669,9.960002z"/>
<path d="M10,6.948313c0.417033-0.494324,0.901387-0.910756,1.433797-1.243479
	c-0.258138-0.852885-0.719604-1.657288-1.393799-2.331502L10,3.333333L9.960002,3.373332
	C9.285808,4.047536,8.824341,4.851949,8.566203,5.704834C9.098613,6.037557,9.582967,6.45399,10,6.948313z"/>
<path d="M6.948324,10C6.454,9.582967,6.037557,9.098622,5.704834,8.566223C4.851949,8.824361,4.047526,9.285797,3.373332,9.960002
	L3.333333,10l0.039999,0.039998c0.674194,0.674205,1.478617,1.135641,2.331502,1.393779
	C6.037557,10.901378,6.454,10.417043,6.948324,10z"/>
<path d="M10,13.051686c-0.417033,0.494324-0.901387,0.910757-1.433797,1.24348
	c0.258138,0.852885,0.719604,1.657298,1.393799,2.331503L10,16.666666l0.039998-0.039997
	c0.674194-0.674215,1.135661-1.478618,1.393799-2.331503C10.901387,13.962443,10.417033,13.54601,10,13.051686z"/>
</svg>
