<?xml version="1.0" encoding="utf-8"?>
<!-- Generator: Adobe Illustrator 18.1.1, SVG Export Plug-In . SVG Version: 6.00 Build 0)  -->
<!DOCTYPE svg PUBLIC "-//W3C//DTD SVG 1.1//EN" "http://www.w3.org/Graphics/SVG/1.1/DTD/svg11.dtd">
<svg version="1.1" id="Layer_1" xmlns="http://www.w3.org/2000/svg" xmlns:xlink="http://www.w3.org/1999/xlink" x="0px" y="0px"
	 viewBox="0 0 20 20" style="enable-background:new 0 0 20 20;" xml:space="preserve">
<path d="M10,0C4.477173,0,0,4.477112,0,10c0,5.522827,4.477173,10,10,10s10-4.477173,10-10C20,4.477112,15.522827,0,10,0z
	 M14.71405,5.28595v0.05658c0,1.824524-0.873047,3.444702-2.223633,4.467163c-0.092834-1.228516-1.071655-2.207275-2.30011-2.30011
	c1.022461-1.350647,2.642578-2.223633,4.467163-2.223633H14.71405z M9.960022,3.373291L10,3.333313l0.039978,0.039978
	c0.674194,0.674255,1.135681,1.478638,1.393799,2.331543C10.901367,6.037537,10.417053,6.453979,10,6.948303
	C9.582947,6.453979,9.098633,6.037537,8.566223,5.704834C8.824341,4.851929,9.285828,4.047546,9.960022,3.373291z M5.28595,5.28595
	h0.05658c1.824585,0,3.444702,0.872986,4.467163,2.223633c-1.228455,0.092834-2.207275,1.071594-2.30011,2.30011
	C6.158997,8.787231,5.28595,7.167053,5.28595,5.342529V5.28595z M3.333313,10l0.040039-0.040039
	c0.674194-0.674194,1.478577-1.13562,2.331482-1.393738C6.037537,9.098633,6.453979,9.582947,6.948303,10
	c-0.494324,0.417053-0.910767,0.901367-1.243469,1.433777c-0.852905-0.258179-1.657288-0.719604-2.331482-1.393799L3.333313,10z
	 M5.28595,14.71405v-0.05658c0-1.824585,0.873047-3.444763,2.223633-4.467163c0.092834,1.228455,1.071655,2.207275,2.30011,2.300049
	c-1.022461,1.350647-2.642578,2.223694-4.467163,2.223694H5.28595z M10.039978,16.626648L10,16.666626l-0.039978-0.039978
	c-0.674194-0.674194-1.135681-1.478638-1.393799-2.331482C9.098633,13.962402,9.582947,13.546021,10,13.051697
	c0.417053,0.494324,0.901367,0.910706,1.433777,1.243469C11.175659,15.14801,10.714172,15.952454,10.039978,16.626648z
	 M14.71405,14.71405h-0.05658c-1.824585,0-3.444702-0.873047-4.467163-2.223694
	c1.228455-0.092773,2.207275-1.071594,2.30011-2.300049c1.350586,1.0224,2.223633,2.642578,2.223633,4.467163V14.71405z
	 M16.626648,10.039978c-0.674194,0.674194-1.478577,1.13562-2.331482,1.393799
	C13.962463,10.901367,13.546021,10.417053,13.051697,10c0.494324-0.417053,0.910767-0.901367,1.243469-1.433777
	c0.852905,0.258118,1.657288,0.719543,2.331482,1.393738L16.666687,10L16.626648,10.039978z"/>
</svg>
