<?xml version="1.0" encoding="utf-8"?>
<!-- Generator: Adobe Illustrator 18.1.1, SVG Export Plug-In . SVG Version: 6.00 Build 0)  -->
<!DOCTYPE svg PUBLIC "-//W3C//DTD SVG 1.1//EN" "http://www.w3.org/Graphics/SVG/1.1/DTD/svg11.dtd">
<svg version="1.1" id="Layer_1" xmlns="http://www.w3.org/2000/svg" xmlns:xlink="http://www.w3.org/1999/xlink" x="0px" y="0px"
	 viewBox="0 0 20 20" style="enable-background:new 0 0 20 20;" xml:space="preserve">
<path d="M10,0C4.477173,0,0,4.477112,0,10c0,5.522827,4.477173,10,10,10s10-4.477173,10-10C20,4.477112,15.522827,0,10,0z
	 M7.333313,8.006653c0,0.364502-0.295471,0.659973-0.659973,0.659973H6.659973C6.295471,8.666626,6,8.371155,6,8.006653v-3.34668
	C6,4.295471,6.295471,4,6.659973,4H6.67334c0.364502,0,0.659973,0.295471,0.659973,0.659973V8.006653z M8.266663,8.266663
	C8.266663,8.41394,8.147278,8.533325,8,8.533325S7.733337,8.41394,7.733337,8.266663V4.399963
	c0-0.147217,0.119385-0.266663,0.266663-0.266663s0.266663,0.119446,0.266663,0.266663V8.266663z M11.333313,8.133301h-0.666626
	v7.873352c0,0.364502-0.295532,0.659973-0.660034,0.659973H9.993347c-0.364502,0-0.660034-0.295471-0.660034-0.659973V8.133301
	H8.666687V4.533325h2.666626V8.133301z M12.266663,8.266663c0,0.147278-0.119385,0.266663-0.266663,0.266663
	s-0.266663-0.119385-0.266663-0.266663V4.399963c0-0.147217,0.119385-0.266663,0.266663-0.266663
	s0.266663,0.119446,0.266663,0.266663V8.266663z M14,8.006653c0,0.364502-0.295471,0.659973-0.659973,0.659973H13.32666
	c-0.364502,0-0.659973-0.295471-0.659973-0.659973v-3.34668C12.666687,4.295471,12.962158,4,13.32666,4h0.013367
	C13.704529,4,14,4.295471,14,4.659973V8.006653z"/>
</svg>
