<?xml version="1.0" encoding="utf-8"?>
<!-- Generator: Adobe Illustrator 18.1.1, SVG Export Plug-In . SVG Version: 6.00 Build 0)  -->
<!DOCTYPE svg PUBLIC "-//W3C//DTD SVG 1.1//EN" "http://www.w3.org/Graphics/SVG/1.1/DTD/svg11.dtd">
<svg version="1.1" id="Layer_1" xmlns="http://www.w3.org/2000/svg" xmlns:xlink="http://www.w3.org/1999/xlink" x="0px" y="0px"
	 viewBox="0 0 20 20" style="enable-background:new 0 0 20 20;" xml:space="preserve">
<path d="M8.666666,8.133333h0.666667v7.873333c0,0.364508,0.295492,0.66,0.66,0.66h0.013333c0.364508,0,0.66-0.295492,0.66-0.66
	V8.133333h0.666667v-3.6H8.666666V8.133333z"/>
<path d="M8,4.133333c-0.147265,0-0.266667,0.119401-0.266667,0.266667v3.866666c0,0.147265,0.119401,0.266667,0.266667,0.266667
	c0.147266,0,0.266667-0.119402,0.266667-0.266667V4.4C8.266666,4.252734,8.147265,4.133333,8,4.133333z"/>
<path d="M11.999999,4.133333c-0.147265,0-0.266666,0.119401-0.266666,0.266667v3.866666
	c0,0.147265,0.119401,0.266667,0.266666,0.266667c0.147266,0,0.266667-0.119402,0.266667-0.266667V4.4
	C12.266666,4.252734,12.147265,4.133333,11.999999,4.133333z"/>
<path d="M6.673331,4h-0.01333C6.295491,4,6,4.295508,6,4.659994v3.346679c0,0.364486,0.295492,0.659994,0.660002,0.659994h0.01333
	c0.36451,0,0.660002-0.295508,0.660002-0.659994V4.659994C7.333333,4.295508,7.037841,4,6.673331,4z"/>
<path d="M13.339998,4h-0.01333c-0.364511,0-0.660002,0.295508-0.660002,0.659994v3.346679
	c0,0.364486,0.295491,0.659994,0.660002,0.659994h0.01333c0.36451,0,0.660001-0.295508,0.660001-0.659994V4.659994
	C13.999999,4.295508,13.704508,4,13.339998,4z"/>
</svg>
