<?xml version="1.0" encoding="utf-8"?>
<!-- Generator: Adobe Illustrator 18.1.1, SVG Export Plug-In . SVG Version: 6.00 Build 0)  -->
<!DOCTYPE svg PUBLIC "-//W3C//DTD SVG 1.1//EN" "http://www.w3.org/Graphics/SVG/1.1/DTD/svg11.dtd">
<svg version="1.1" id="Layer_1" xmlns="http://www.w3.org/2000/svg" xmlns:xlink="http://www.w3.org/1999/xlink" x="0px" y="0px"
	 viewBox="0 0 20 20" style="enable-background:new 0 0 20 20;" xml:space="preserve">
<path d="M10,0C4.477173,0,0,4.477112,0,10c0,5.522827,4.477173,10,10,10s10-4.477173,10-10C20,4.477112,15.522827,0,10,0z
	 M15,10.016663c0,1.216187-0.98938,2.205505-2.205505,2.205505h-1.144531c-1.216125,0-2.205505-0.989319-2.205505-2.205505V9.999939
	V9.983276c0-0.603455-0.491028-1.094421-1.094421-1.094421H7.205505c-0.603394,0-1.094421,0.490967-1.094421,1.094421v0.033386
	c0,0.603394,0.491028,1.094421,1.094421,1.094421h1.144531c0.245789,0,0.483521-0.085144,0.677063-0.239197
	c0.118225,0.361389,0.308472,0.689697,0.554688,0.968506c-0.362976,0.24646-0.790283,0.381775-1.23175,0.381775H7.205505
	C5.98938,12.222168,5,11.232849,5,10.016663V9.983276C5,8.76709,5.98938,7.777771,7.205505,7.777771h1.144531
	c1.216125,0,2.205505,0.989319,2.205505,2.205505v0.016663v0.016724c0,0.603394,0.491028,1.094421,1.094421,1.094421h1.144531
	c0.603394,0,1.094421-0.491028,1.094421-1.094421V9.983276c0-0.603455-0.491028-1.094421-1.094421-1.094421h-1.144531
	c-0.245789,0-0.483521,0.085144-0.677063,0.239197c-0.118225-0.361389-0.308472-0.689697-0.554688-0.968506
	c0.362976-0.24646,0.790283-0.381775,1.23175-0.381775h1.144531C14.01062,7.777771,15,8.76709,15,9.983276V10.016663z"/>
</svg>
