<svg xmlns="http://www.w3.org/2000/svg" viewBox="0 0 26 26"><title>icon_linkout</title><polygon points="26 12 22 12 22 4 14 4 14 0 26 0 26 12" fill="#231f20"></polygon><polygon points="12 16.83 9.17 14 22 1.17 24.83 4 12 16.83 12 16.83" fill="#231f20"></polygon><path d="M 21.48 16 C 19.176882819737166 22.534190941040684 10.663965396281858 24.124862798511998 6.1567486382938945 18.863209341991656 C 2.0421301937365293 14.0598689384713 4.0349656963907305 6.6225055845698595 10 4.52 C 10 4.52 10 0.34999999999999964 10 0.34999999999999964 C 0.26292300454779394 2.660298624157397 -3.3217784983400698 14.644930311107196 3.547537298234575 21.922337035695165 C 10.41685309480922 29.199743760283134 22.58819933912448 26.311870480086395 25.455960538002042 16.72416513134103 C 25.527588797866652 16.48469238497218 25.592295519511673 16.243203611807562 25.65 16 C 25.65 16 21.48 16 21.48 16 C 21.48 16 21.48 16 21.48 16" fill="#231f20"></path></svg>
