<?xml version="1.0" encoding="utf-8"?>
<!-- Generator: Adobe Illustrator 18.1.1, SVG Export Plug-In . SVG Version: 6.00 Build 0)  -->
<!DOCTYPE svg PUBLIC "-//W3C//DTD SVG 1.1//EN" "http://www.w3.org/Graphics/SVG/1.1/DTD/svg11.dtd">
<svg version="1.1" id="Layer_1" xmlns="http://www.w3.org/2000/svg" xmlns:xlink="http://www.w3.org/1999/xlink" x="0px" y="0px"
	 viewBox="0 0 20 20" style="enable-background:new 0 0 20 20;" xml:space="preserve">
<path d="M12.794498,7.777759h-1.144531c-0.441455,0-0.868782,0.135319-1.231754,0.381796
	c0.246241,0.278825,0.436475,0.607121,0.554671,0.968506c0.193539-0.15407,0.431282-0.239193,0.677083-0.239193h1.144531
	c0.603386,0,1.094401,0.490999,1.094401,1.0944v0.033423c0,0.60341-0.491015,1.094401-1.094401,1.094401h-1.144531
	c-0.603417,0-1.0944-0.490992-1.0944-1.094401V9.999984V9.983268c0-1.216146-0.989388-2.205509-2.205534-2.205509H7.205501
	C5.989356,7.777759,5,8.767122,5,9.983268v0.033423C5,11.232837,5.989356,12.2222,7.205501,12.2222h1.144532
	c0.441455,0,0.868782-0.135319,1.231754-0.381795c-0.246241-0.278817-0.436475-0.607121-0.554671-0.968506
	c-0.193539,0.154069-0.431282,0.239193-0.677083,0.239193H7.205501c-0.603385,0-1.094401-0.490992-1.094401-1.094401V9.983268
	c0-0.603401,0.491016-1.0944,1.094401-1.0944h1.144532c0.603417,0,1.0944,0.490999,1.0944,1.0944v0.016716v0.016707
	c0,1.216146,0.989388,2.205509,2.205534,2.205509h1.144531C14.010645,12.2222,15,11.232837,15,10.016691V9.983268
	C15,8.767122,14.010645,7.777759,12.794498,7.777759z"/>
</svg>
