<?xml version="1.0" encoding="utf-8"?>
<!-- Generator: Adobe Illustrator 19.1.0, SVG Export Plug-In . SVG Version: 6.00 Build 0)  -->
<svg version="1.1" id="Layer_1" xmlns="http://www.w3.org/2000/svg" xmlns:xlink="http://www.w3.org/1999/xlink" x="0px" y="0px"
	 viewBox="0 0 40 40" enable-background="new 0 0 40 40" xml:space="preserve">
<g>
	<rect x="7.5" y="12.5" fill="#CCCCC8" width="0" height="0"/>
	<path fill="#CCCCC8" d="M32.5,17.5v-2.6c0-6.8-5.6-12.4-12.4-12.4h-0.2c-6.8,0-12.4,5.6-12.4,12.4v2.6C6.1,17.5,5,18.6,5,20v10
		c0,5.5,4.5,10,10,10h10c5.5,0,10-4.5,10-10V20C35,18.6,33.9,17.5,32.5,17.5z M12.5,17.5v-2.6c0-4.1,3.3-7.4,7.4-7.4h0.2
		c4.1,0,7.4,3.3,7.4,7.4v2.6H12.5z"/>
</g>
</svg>
