<?xml version="1.0" encoding="utf-8"?>
<!-- Generator: Adobe Illustrator 19.1.0, SVG Export Plug-In . SVG Version: 6.00 Build 0)  -->
<svg version="1.1" id="Layer_1" xmlns="http://www.w3.org/2000/svg" xmlns:xlink="http://www.w3.org/1999/xlink" x="0px" y="0px"
	 viewBox="0 0 40 40" enable-background="new 0 0 40 40" xml:space="preserve">
<g>
	<path fill="#CCCCC8" d="M38.5,16.5l-15-15c-2-2-5.1-2-7.1,0l-15,15c-2,2-2,5.1,0,7.1l15,15c2,2,5.1,2,7.1,0l15-15
		C40.5,21.6,40.5,18.4,38.5,16.5z M17.7,8.3C17.7,7,18.7,6,20,6s2.3,1,2.3,2.3v14.3c0,1.3-1,2.3-2.3,2.3s-2.3-1-2.3-2.3V8.3z
		 M20,33.7c-1.7,0-3.1-1.4-3.1-3.1c0-1.7,1.4-3.1,3.1-3.1s3.1,1.4,3.1,3.1C23.1,32.4,21.7,33.7,20,33.7z"/>
</g>
</svg>
