<?xml version="1.0" encoding="utf-8"?>
<!-- Generator: Adobe Illustrator 18.1.1, SVG Export Plug-In . SVG Version: 6.00 Build 0)  -->
<!DOCTYPE svg PUBLIC "-//W3C//DTD SVG 1.1//EN" "http://www.w3.org/Graphics/SVG/1.1/DTD/svg11.dtd">
<svg version="1.1" id="Layer_1" xmlns="http://www.w3.org/2000/svg" xmlns:xlink="http://www.w3.org/1999/xlink" x="0px" y="0px"
	 viewBox="0 0 20 20" style="enable-background:new 0 0 20 20;" xml:space="preserve">
<path d="M10,0C4.477173,0,0,4.477112,0,10c0,5.522827,4.477173,10,10,10s10-4.477173,10-10C20,4.477112,15.522827,0,10,0z
	 M15,13.333313C15,14.253784,14.253784,15,13.333313,15H5V6.666626C5,5.746155,5.746216,5,6.666687,5h6.666626l-6.073242,6.073242
	l1.666687,1.666626L15,6.666626V13.333313z"/>
<polygon points="6.666687,11.666626 6.666687,13.333313 8.333313,13.333313 8.573242,13.093384 6.906555,11.426758 "/>
</svg>
