<?xml version="1.0" encoding="UTF-8" standalone="no"?>
<svg viewBox="0 0 80 80" version="1.1" xmlns="http://www.w3.org/2000/svg" xmlns:xlink="http://www.w3.org/1999/xlink">
    <g id="Posting" stroke="none" stroke-width="1" fill="none" fill-rule="evenodd">
        <path d="M40,80 C17.9083333,80 0,62.0916667 0,40 C0,17.9083333 17.9083333,0 40,0 C62.0916667,0 80,17.9083333 80,40 C80,62.0916667 62.0916667,80 40,80 Z M24.2857143,20 C20.8144286,20 18,22.843509 18,26.3506623 L18,51.7533115 C18,55.2604648 20.8144286,58.1039739 24.2857143,58 L36.8571429,58 L40,61.279305 L43.1428571,58 L55.7142857,58 C59.1855714,58.1039739 62,55.2604648 62,51.7533115 L62,26.3506623 C62,22.843509 59.1855714,20 55.7142857,20 L24.2857143,20 Z M23.9954928,32 L55.9954928,32 L55.9954928,29 L23.9954928,29 L23.9954928,32 Z M23.9954928,38 L55.9954928,38 L55.9954928,35 L23.9954928,35 L23.9954928,38 Z M23.9954928,44 L55.9954928,44 L55.9954928,41 L23.9954928,41 L23.9954928,44 Z M23.9954928,50 L39.9954928,50 L39.9954928,47 L23.9954928,47 L23.9954928,50 Z" id="Combined-Shape" fill="#000000"></path>
    </g>
</svg>
