<?xml version="1.0" encoding="UTF-8" standalone="no"?>
<svg viewBox="0 0 80 80" version="1.1" xmlns="http://www.w3.org/2000/svg" xmlns:xlink="http://www.w3.org/1999/xlink">
    <g id="Posting" stroke="none" stroke-width="1" fill="none" fill-rule="evenodd">
        <path d="M40,80 C17.9083333,80 0,62.0916667 0,40 C0,17.9083333 17.9083333,-1.42108547e-14 40,-1.42108547e-14 C62.0916667,-1.42108547e-14 80,17.9083333 80,40 C80,62.0916667 62.0916667,80 40,80 Z M18,65 L62,65 L62,15 L18,15 L18,65 Z M59,52.8333333 C59,54.582125 57.582125,56 55.8333333,56 L43,56 L43,50 L53,50 L46,40 L50,40 L43,30 L46,30 L40,21.1666667 L34,30 L37,30 L30,40 L34,40 L27,50 L36,50 L36,56 L24.1666667,56 C22.417875,56 21,54.582125 21,52.8333333 L21,21.1666667 C21,19.417875 22.417875,18 24.1666667,18 L55.8333333,18 C57.582125,18 59,19.417875 59,21.1666667 L59,52.8333333 Z" id="Combined-Shape" fill="#000000"></path>
    </g>
</svg>
