<?xml version="1.0" encoding="UTF-8" standalone="no"?>
<svg viewBox="0 0 80 80" version="1.1" xmlns="http://www.w3.org/2000/svg" xmlns:xlink="http://www.w3.org/1999/xlink">
    <g id="Posting" stroke="none" stroke-width="1" fill="none" fill-rule="evenodd">
        <path d="M40,80 C17.9083333,80 0,62.0916667 0,40 C0,17.9083333 17.9083333,0 40,0 C62.0916667,0 80,17.9083333 80,40 C80,62.0916667 62.0916667,80 40,80 Z M42.0367201,22.1459838 L37.9632799,26.2194241 C36.3929586,27.7897454 35.3527885,29.7922405 34.9380626,31.9611629 C36.8076845,32.0779304 38.6531475,32.5691591 40.3590264,33.4348491 C40.4999527,32.1973822 41.0435255,31.0484976 41.9172683,30.1734125 L45.9907086,26.0999723 C48.1381565,23.9525244 51.633128,23.9525244 53.7805759,26.0999723 L53.9000277,26.2194241 C56.0474756,28.366872 56.0474756,31.8618435 53.9000277,34.0092914 L49.8265875,38.0827317 C47.6791395,40.2301796 44.1841681,40.2301796 42.0367201,38.0827317 L41.9776653,38.0223347 L41.9172683,37.9632799 C37.5901608,33.6348302 30.5478738,33.6348302 26.2194241,37.9632799 L22.1459838,42.0367201 C17.8175341,46.3651698 17.8175341,53.4074569 22.1459838,57.7345644 L22.2654356,57.8540162 C26.5925431,62.1824659 33.6348302,62.1824659 37.9632799,57.8540162 L42.0367201,53.7805759 C43.6083836,52.2102546 44.6472115,50.2077595 45.0619374,48.0388371 C43.1923155,47.9220696 41.3468525,47.4308409 39.6409736,46.5651509 C39.5000473,47.8026178 38.9564745,48.9515024 38.0827317,49.8265875 L34.0092914,53.9000277 C31.8618435,56.0474756 28.366872,56.0474756 26.2194241,53.9000277 L26.0999723,53.7805759 C23.9525244,51.633128 23.9525244,48.1381565 26.0999723,45.9907086 L30.1734125,41.9172683 C32.3208605,39.7698204 35.8158319,39.7698204 37.9632799,41.9172683 L38.0223347,41.9776653 L38.0827317,42.0367201 C42.4098392,46.3651698 49.4521262,46.3651698 53.7805759,42.0367201 L57.8540162,37.9632799 C62.1824659,33.6348302 62.1824659,26.5925431 57.8540162,22.2654356 L57.7359066,22.1459838 C53.4074569,17.8175341 46.3651698,17.8175341 42.0367201,22.1459838 Z" id="Combined-Shape" fill="#000000"></path>
    </g>
</svg>
