<?xml version="1.0" encoding="utf-8"?>
<!-- Generator: Adobe Illustrator 18.1.1, SVG Export Plug-In . SVG Version: 6.00 Build 0)  -->
<!DOCTYPE svg PUBLIC "-//W3C//DTD SVG 1.1//EN" "http://www.w3.org/Graphics/SVG/1.1/DTD/svg11.dtd">
<svg version="1.1" id="Layer_1" xmlns="http://www.w3.org/2000/svg" xmlns:xlink="http://www.w3.org/1999/xlink" x="0px" y="0px"
	 viewBox="0 0 20 20" style="enable-background:new 0 0 20 20;" xml:space="preserve">
<path d="M10,0C4.477173,0,0,4.477112,0,10c0,5.522827,4.477173,10,10,10s10-4.477173,10-10C20,4.477112,15.522827,0,10,0z
	 M16.367188,14.777344H3.633301V5.222656h6.893433C9.707886,5.502441,8.887207,5.91626,8.174194,6.509766H4.92041v6.980469
	h10.159668v-2.260132l1.287109-0.997742V14.777344z M13.349426,11.306335l-0.004822-3.057434
	c-3.23053-0.85022-6.312317,3.129211-6.312317,3.129211c0-5.618164,6.201294-5.644043,6.315369-5.644043
	c0.00116,0,0.00177,0,0.00177,0v-2.31488l5.087585,3.943481L13.349426,11.306335z"/>
</svg>
