<?xml version="1.0" encoding="utf-8"?>
<!-- Generator: Adobe Illustrator 19.1.0, SVG Export Plug-In . SVG Version: 6.00 Build 0)  -->
<svg version="1.1" id="Layer_1" xmlns="http://www.w3.org/2000/svg" xmlns:xlink="http://www.w3.org/1999/xlink" x="0px" y="0px"
	 viewBox="0 0 40 40" enable-background="new 0 0 40 40" xml:space="preserve">
<g>
	<g>
		<path fill="#CCCCC8" d="M33.8,32.5h-1.3V30h-25v2.5H6.2c-0.7,0-1.2,0.6-1.2,1.2v0C5,34.4,5.6,35,6.2,35h1.3v2.5h25V35h1.3
			c0.7,0,1.2-0.6,1.2-1.2v0C35,33.1,34.4,32.5,33.8,32.5z"/>
		<path fill="#CCCCC8" d="M33.8,5h-1.3V2.5h-25V5H6.2C5.6,5,5,5.6,5,6.2v0c0,0.7,0.6,1.2,1.2,1.2h1.3v20.6h25V7.5h1.3
			c0.7,0,1.2-0.6,1.2-1.2v0C35,5.6,34.4,5,33.8,5z M30.7,25H9.2v-1.9h21.5V25z M30.7,20.6H9.2v-1.9h21.5V20.6z M30.7,16.3H9.2v-1.9
			h21.5V16.3z M30.7,11.9H9.2V10h21.5V11.9z"/>
	</g>
</g>
</svg>
