<?xml version="1.0" encoding="utf-8"?>
<!-- Generator: Adobe Illustrator 18.0.0, SVG Export Plug-In . SVG Version: 6.00 Build 0)  -->
<!DOCTYPE svg PUBLIC "-//W3C//DTD SVG 1.1//EN" "http://www.w3.org/Graphics/SVG/1.1/DTD/svg11.dtd">
<svg version="1.1" id="Layer_1" xmlns="http://www.w3.org/2000/svg" xmlns:xlink="http://www.w3.org/1999/xlink" x="0px" y="0px"
	 viewBox="0 0 40 40" enable-background="new 0 0 40 40" xml:space="preserve">
<g>
	<path fill="#CCCCC8" d="M21.9,3.6C15.5,4.1,10.3,9.3,9.7,15.7c-0.3,3.2,0.6,6.2,2.2,8.6L0.8,35.4c-1,1-1,2.7,0,3.7l0,0
		c1,1,2.7,1,3.7,0l11.1-11.1h0c2.4,1.6,5.4,2.5,8.6,2.2c6.4-0.6,11.6-5.8,12.1-12.3C37,9.8,30.2,3,21.9,3.6z M23,27
		c-5.5,0-10-4.5-10-10S17.5,7,23,7c5.5,0,10,4.5,10,10S28.5,27,23,27z"/>
</g>
</svg>
