<?xml version="1.0" encoding="utf-8"?>
<!-- Generator: Adobe Illustrator 18.1.1, SVG Export Plug-In . SVG Version: 6.00 Build 0)  -->
<!DOCTYPE svg PUBLIC "-//W3C//DTD SVG 1.1//EN" "http://www.w3.org/Graphics/SVG/1.1/DTD/svg11.dtd">
<svg version="1.1" id="Layer_1" xmlns="http://www.w3.org/2000/svg" xmlns:xlink="http://www.w3.org/1999/xlink" x="0px" y="0px"
	 viewBox="0 0 20 20" style="enable-background:new 0 0 20 20;" xml:space="preserve">
<circle cx="11.370911" cy="8.629089" r="3.333313"/>
<path d="M10,0C4.477173,0,0,4.477112,0,10c0,5.522827,4.477173,10,10,10s10-4.477173,10-10C20,4.477112,15.522827,0,10,0z
	 M15.819458,8.98584c-0.166626,2.144775-1.88855,3.890747-4.030823,4.086548c-1.06781,0.097595-2.065125-0.183533-2.877441-0.721497
	H8.911133l-3.69104,3.69104c-0.345032,0.345032-0.904419,0.345032-1.249451,0l-0.012573-0.012634
	c-0.345032-0.344971-0.345032-0.904358,0-1.24939l3.69104-3.69104C7.111267,10.276672,6.830139,9.279785,6.92749,8.21228
	c0.195374-2.142212,1.940735-3.86438,4.085327-4.031616C13.75885,3.966492,16.032776,6.23999,15.819458,8.98584z"/>
</svg>
