<?xml version="1.0" encoding="utf-8"?>
<!-- Generator: Adobe Illustrator 18.1.1, SVG Export Plug-In . SVG Version: 6.00 Build 0)  -->
<!DOCTYPE svg PUBLIC "-//W3C//DTD SVG 1.1//EN" "http://www.w3.org/Graphics/SVG/1.1/DTD/svg11.dtd">
<svg version="1.1" id="Layer_1" xmlns="http://www.w3.org/2000/svg" xmlns:xlink="http://www.w3.org/1999/xlink" x="0px" y="0px"
	 viewBox="0 0 20 20" style="enable-background:new 0 0 20 20;" xml:space="preserve">
<circle cx="10" cy="10.000031" r="2.916656"/>
<path d="M10,0C4.477173,0,0,4.477112,0,10c0,5.522827,4.477173,10,10,10s10-4.477173,10-10C20,4.477112,15.522827,0,10,0z
	 M15.695251,11.260498l-1.167847-0.087585c-0.29187-0.021912-0.564331,0.146362-0.675964,0.416931
	c-0.001282,0.002991-0.002502,0.005981-0.003723,0.008972c-0.112427,0.270569-0.039062,0.582153,0.183044,0.773254
	l0.887146,0.763367c-0.457397,0.716003-1.066528,1.325073-1.782471,1.782471l-0.763428-0.887146
	c-0.19104-0.222046-0.502686-0.29541-0.773193-0.183044c-0.002991,0.001221-0.005981,0.002502-0.009033,0.003723
	c-0.270569,0.111633-0.438782,0.384094-0.41687,0.676025l0.087585,1.167786C10.85437,15.784729,10.432983,15.833374,10,15.833374
	s-0.85437-0.048645-1.260498-0.138123l0.087585-1.167786c0.021912-0.291931-0.146301-0.564392-0.41687-0.676025
	c-0.003052-0.001221-0.006042-0.002502-0.009033-0.003723c-0.270508-0.112366-0.582153-0.039001-0.773193,0.183044
	l-0.763428,0.887146C6.148621,14.46051,5.53949,13.85144,5.082092,13.135437l0.887146-0.763367
	c0.222046-0.191101,0.295471-0.502686,0.183044-0.773254c-0.001221-0.002991-0.002441-0.005981-0.003723-0.008972
	c-0.111633-0.270569-0.384094-0.438843-0.676025-0.416931l-1.167786,0.087585C4.215271,10.854431,4.166687,10.432983,4.166687,10
	s0.048584-0.85437,0.138062-1.260437l1.167786,0.087585C5.764465,8.848999,6.036926,8.680786,6.14856,8.410217
	c0.001282-0.002991,0.002502-0.005981,0.003723-0.009033c0.112427-0.270508,0.039062-0.582092-0.183044-0.773193L5.082092,6.864624
	c0.457458-0.716003,1.066528-1.325073,1.782471-1.782532l0.763428,0.887207c0.19104,0.222046,0.502686,0.29541,0.773193,0.183044
	c0.002991-0.001282,0.005981-0.002502,0.009033-0.003723c0.270569-0.111694,0.438782-0.384155,0.41687-0.676025L8.739502,4.30481
	C9.14563,4.215271,9.567017,4.166687,10,4.166687s0.85437,0.048584,1.260498,0.138123l-0.087585,1.167786
	c-0.021912,0.29187,0.146301,0.564331,0.41687,0.676025c0.003052,0.001221,0.006042,0.002441,0.009033,0.003723
	c0.270508,0.112366,0.582153,0.039001,0.773193-0.183044l0.763428-0.887207c0.715942,0.457458,1.325012,1.066528,1.782471,1.782532
	l-0.887146,0.763367c-0.222107,0.191101-0.295471,0.502686-0.183044,0.773193
	c0.001221,0.003052,0.002441,0.006042,0.003723,0.009033c0.111633,0.270569,0.384094,0.438782,0.676025,0.416931l1.167786-0.087585
	C15.784729,9.14563,15.833313,9.567017,15.833313,10S15.784729,10.854431,15.695251,11.260498z"/>
</svg>
