<?xml version="1.0" encoding="utf-8"?>
<!-- Generator: Adobe Illustrator 19.1.0, SVG Export Plug-In . SVG Version: 6.00 Build 0)  -->
<svg version="1.1" id="Layer_1" xmlns="http://www.w3.org/2000/svg" xmlns:xlink="http://www.w3.org/1999/xlink" x="0px" y="0px"
	 viewBox="0 0 40 40" enable-background="new 0 0 40 40" xml:space="preserve">
<g>
	<path fill="#CCCCC8" d="M37.1,23.8c0.3-1.2,0.4-2.5,0.4-3.8s-0.1-2.6-0.4-3.8l-3.5,0.3c-0.9,0.1-1.7-0.4-2-1.3c0,0,0,0,0,0
		c-0.3-0.8-0.1-1.7,0.5-2.3l2.7-2.3c-1.4-2.1-3.2-4-5.3-5.3l-2.3,2.7c-0.6,0.7-1.5,0.9-2.3,0.5c0,0,0,0,0,0c-0.8-0.3-1.3-1.2-1.3-2
		l0.3-3.5c-1.2-0.3-2.5-0.4-3.8-0.4s-2.6,0.1-3.8,0.4l0.3,3.5c0.1,0.9-0.4,1.7-1.3,2c0,0,0,0,0,0c-0.8,0.3-1.7,0.1-2.3-0.5l-2.3-2.7
		c-2.1,1.4-4,3.2-5.3,5.3l2.7,2.3c0.7,0.6,0.9,1.5,0.5,2.3c0,0,0,0,0,0c-0.3,0.8-1.2,1.3-2,1.3l-3.5-0.3c-0.3,1.2-0.4,2.5-0.4,3.8
		s0.1,2.6,0.4,3.8l3.5-0.3c0.9-0.1,1.7,0.4,2,1.3c0,0,0,0,0,0c0.3,0.8,0.1,1.7-0.5,2.3l-2.7,2.3c1.4,2.1,3.2,4,5.3,5.3l2.3-2.7
		c0.6-0.7,1.5-0.9,2.3-0.5c0,0,0,0,0,0c0.8,0.3,1.3,1.2,1.3,2l-0.3,3.5c1.2,0.3,2.5,0.4,3.8,0.4s2.6-0.1,3.8-0.4l-0.3-3.5
		c-0.1-0.9,0.4-1.7,1.3-2c0,0,0,0,0,0c0.8-0.3,1.7-0.1,2.3,0.5l2.3,2.7c2.1-1.4,4-3.2,5.3-5.3l-2.7-2.3c-0.7-0.6-0.9-1.5-0.5-2.3
		c0,0,0,0,0,0c0.3-0.8,1.2-1.3,2-1.3L37.1,23.8z M20,28.7c-4.8,0-8.7-3.9-8.7-8.7c0-4.8,3.9-8.7,8.7-8.7s8.7,3.9,8.7,8.7
		C28.7,24.8,24.8,28.7,20,28.7z"/>
</g>
</svg>
