<?xml version="1.0" encoding="utf-8"?>
<!-- Generator: Adobe Illustrator 19.1.0, SVG Export Plug-In . SVG Version: 6.00 Build 0)  -->
<svg version="1.1" id="Layer_1" xmlns="http://www.w3.org/2000/svg" xmlns:xlink="http://www.w3.org/1999/xlink" x="0px" y="0px"
	 viewBox="0 0 40 40" enable-background="new 0 0 40 40" xml:space="preserve">
<g>
	<g>
		<path fill="#CCCCC6" d="M40,20c0-2.4-2-4.4-4.4-4.4c-1.2,0-2.2,0.5-3,1.2c-3-2.1-7-3.5-11.5-3.7l2-9.2l6.4,1.4
			c0.2,1.6,1.5,2.8,3.1,2.8c1.7,0,3.1-1.4,3.1-3.1s-1.4-3.1-3.1-3.1c-1.2,0-2.2,0.6-2.7,1.6l-7.3-1.6c-0.2-0.1-0.5,0-0.7,0.1
			c-0.2,0.1-0.4,0.3-0.4,0.6l-2.2,10.5c-4.6,0.2-8.7,1.5-11.7,3.7c-0.8-0.8-1.9-1.2-3-1.2C2,15.6,0,17.6,0,20c0,1.8,1.1,3.3,2.6,4
			c-0.1,0.4-0.1,0.9-0.1,1.3c0,6.7,7.8,12.2,17.5,12.2S37.5,32,37.5,25.3c0-0.4,0-0.9-0.1-1.3C38.9,23.3,40,21.8,40,20z"/>
	</g>
</g>
</svg>
