<?xml version="1.0" encoding="utf-8"?>
<!-- Generator: Adobe Illustrator 18.1.1, SVG Export Plug-In . SVG Version: 6.00 Build 0)  -->
<!DOCTYPE svg PUBLIC "-//W3C//DTD SVG 1.1//EN" "http://www.w3.org/Graphics/SVG/1.1/DTD/svg11.dtd">
<svg version="1.1" id="Layer_1" xmlns="http://www.w3.org/2000/svg" xmlns:xlink="http://www.w3.org/1999/xlink" x="0px" y="0px"
	 viewBox="0 0 20 20" style="enable-background:new 0 0 20 20;" xml:space="preserve">
<path d="M12.151733,13.461365c-0.461731,0.46106-1.447876,0.624695-2.152161,0.624695s-1.690247-0.163574-2.151123-0.624512
	c-0.108459-0.108459-0.284302-0.108398-0.3927-0.000061c-0.108459,0.108459-0.108459,0.284241-0.000061,0.3927
	c0.730347,0.730347,2.131714,0.78717,2.543884,0.78717c0.412048,0,1.813293-0.056824,2.544556-0.787048
	c0.108521-0.108337,0.108582-0.284119,0.000244-0.392639C12.436096,13.353271,12.260315,13.353088,12.151733,13.461365z"/>
<circle cx="12.514038" cy="11.142914" r="1.142853"/>
<path d="M10,0C4.477173,0,0,4.477112,0,10c0,5.522827,4.477173,10,10,10s10-4.477173,10-10C20,4.477112,15.522827,0,10,0z
	 M16.025208,10.976013c0.056946,0.240173,0.088257,0.486511,0.088257,0.73822c0,2.41571-2.734436,4.381042-6.09552,4.381042
	c-3.360779,0-6.094971-1.965332-6.094971-4.381042c0-0.246216,0.029846-0.487427,0.084412-0.722717
	c-0.511047-0.246033-0.864502-0.767273-0.864502-1.372314c0-0.841553,0.682068-1.523926,1.523865-1.523926
	c0.436707,0,0.829346,0.184692,1.107117,0.479004c1.031738-0.720642,2.415222-1.18219,3.945984-1.235474l0.883972-3.986938
	c0.031799-0.143799,0.17395-0.234558,0.318054-0.202637l2.819092,0.624939c0.187683-0.373962,0.573547-0.631287,1.020386-0.631287
	c0.631958,0,1.143433,0.511719,1.143433,1.142883s-0.511475,1.142822-1.143433,1.142822
	c-0.628235,0-1.137695-0.507507-1.141907-1.13501l-2.552734-0.565918l-0.800354,3.610229
	c1.539551,0.044617,2.933044,0.501587,3.973633,1.221069c0.276917-0.285583,0.663879-0.463684,1.093079-0.463684
	c0.841675,0,1.524048,0.682434,1.524048,1.524048C16.857117,10.211548,16.518616,10.723694,16.025208,10.976013z"/>
<circle cx="7.485718" cy="11.143066" r="1.142883"/>
</svg>
