<?xml version="1.0" encoding="utf-8"?>
<!-- Generator: Adobe Illustrator 18.1.1, SVG Export Plug-In . SVG Version: 6.00 Build 0)  -->
<!DOCTYPE svg PUBLIC "-//W3C//DTD SVG 1.1//EN" "http://www.w3.org/Graphics/SVG/1.1/DTD/svg11.dtd">
<svg version="1.1" id="Layer_1" xmlns="http://www.w3.org/2000/svg" xmlns:xlink="http://www.w3.org/1999/xlink" x="0px" y="0px"
	 viewBox="0 0 20 20" style="enable-background:new 0 0 20 20;" xml:space="preserve">
<path d="M16.857117,9.619324c0-0.841614-0.682373-1.524048-1.524048-1.524048c-0.429199,0-0.816162,0.178101-1.093079,0.463684
	c-1.040588-0.719482-2.434082-1.176453-3.973633-1.221069l0.800354-3.610229l2.552734,0.565918
	c0.004211,0.627502,0.513672,1.13501,1.141907,1.13501c0.631958,0,1.143433-0.511658,1.143433-1.142822
	s-0.511475-1.142883-1.143433-1.142883c-0.446838,0-0.832703,0.257324-1.020386,0.631287l-2.819092-0.624939
	c-0.144104-0.031921-0.286255,0.058838-0.318054,0.202637L9.719849,7.338806C8.189087,7.39209,6.805603,7.853638,5.773865,8.57428
	c-0.277771-0.294312-0.67041-0.479004-1.107117-0.479004c-0.841797,0-1.523865,0.682373-1.523865,1.523926
	c0,0.605042,0.353455,1.126282,0.864502,1.372314c-0.054565,0.235291-0.084412,0.476501-0.084412,0.722717
	c0,2.41571,2.734192,4.381042,6.094971,4.381042c3.361084,0,6.09552-1.965332,6.09552-4.381042
	c0-0.251709-0.031311-0.498047-0.088257-0.73822C16.518616,10.723694,16.857117,10.211548,16.857117,9.619324z M6.342834,11.143066
	c0-0.630249,0.512634-1.143005,1.1427-1.143005c0.63031,0,1.143066,0.512756,1.143066,1.143005
	c0,0.630127-0.512756,1.1427-1.143066,1.1427C6.855469,12.285767,6.342834,11.773193,6.342834,11.143066z M12.544128,13.854309
	c-0.731262,0.730225-2.132507,0.787048-2.544556,0.787048c-0.41217,0-1.813538-0.056824-2.543884-0.78717
	c-0.108398-0.108459-0.108398-0.284241,0.000061-0.3927c0.108398-0.108337,0.284241-0.108398,0.3927,0.000061
	c0.460876,0.460938,1.446838,0.624512,2.151123,0.624512s1.69043-0.163635,2.152161-0.624695
	c0.108582-0.108276,0.284363-0.108093,0.392639,0.000305C12.65271,13.57019,12.652649,13.745972,12.544128,13.854309z
	 M12.514038,12.285767c-0.630066,0-1.142639-0.512634-1.142639-1.1427c0-0.630249,0.512573-1.143005,1.142639-1.143005
	c0.63031,0,1.143127,0.512756,1.143127,1.143005C13.657166,11.773132,13.144348,12.285767,12.514038,12.285767z"/>
</svg>
