<?xml version="1.0" encoding="utf-8"?>
<!-- Generator: Adobe Illustrator 19.2.1, SVG Export Plug-In . SVG Version: 6.00 Build 0)  -->
<svg version="1.1" id="Layer_1" xmlns="http://www.w3.org/2000/svg" xmlns:xlink="http://www.w3.org/1999/xlink" x="0px" y="0px"
	 viewBox="0 0 40 40" style="enable-background:new 0 0 40 40;" xml:space="preserve">
<style type="text/css">
	.st0{fill:#CCCCC6;}
</style>
<path class="st0" d="M10.3,33.5c2.5,2.5,5.9,4,9.7,4s7.2-1.5,9.7-4c-3,0.6-6.3,0.9-9.7,0.9S13.2,34.1,10.3,33.5z"/>
<path class="st0" d="M33,19.3c-1.8-5.1-6.4-8.9-12.1-9.3V8c1.3-0.4,2.2-1.6,2.2-3c0-1.7-1.4-3.1-3.1-3.1S16.9,3.3,16.9,5
	c0,1.4,0.9,2.6,2.2,3V10C13.4,10.4,8.7,14.2,7,19.3c-4.3,1.4-7,3.4-7,5.7c0,4.1,9,7.5,20,7.5s20-3.4,20-7.5
	C40,22.7,37.3,20.7,33,19.3z M20,27.5c-2.8,0-5-2.2-5-5s2.2-5,5-5s5,2.2,5,5S22.8,27.5,20,27.5z"/>
</svg>
