<?xml version="1.0" encoding="utf-8"?>
<!-- Generator: Adobe Illustrator 18.1.1, SVG Export Plug-In . SVG Version: 6.00 Build 0)  -->
<!DOCTYPE svg PUBLIC "-//W3C//DTD SVG 1.1//EN" "http://www.w3.org/Graphics/SVG/1.1/DTD/svg11.dtd">
<svg version="1.1" id="Layer_1" xmlns="http://www.w3.org/2000/svg" xmlns:xlink="http://www.w3.org/1999/xlink" x="0px" y="0px"
	 viewBox="0 0 20 20" style="enable-background:new 0 0 20 20;" xml:space="preserve">
<rect x="7.133362" y="10.466675" width="5.733276" height="0.399963"/>
<rect x="7.133362" y="8.466675" width="5.733276" height="0.399963"/>
<rect x="7.133362" y="9.466675" width="5.733276" height="0.399963"/>
<rect x="7.133362" y="7.466675" width="5.733276" height="0.399963"/>
<rect x="7.133362" y="12.466675" width="5.733276" height="0.399963"/>
<rect x="7.133362" y="13.466675" width="5.733276" height="0.399963"/>
<rect x="7.133362" y="11.466675" width="5.733276" height="0.399963"/>
<path d="M10,0C4.477173,0,0,4.477112,0,10c0,5.522827,4.477173,10,10,10s10-4.477173,10-10C20,4.477112,15.522827,0,10,0z
	 M13.333313,14.666626H6.666687V5.333313h6.666626V14.666626z"/>
</svg>
