<?xml version="1.0" encoding="utf-8"?>
<!-- Generator: Adobe Illustrator 18.1.1, SVG Export Plug-In . SVG Version: 6.00 Build 0)  -->
<!DOCTYPE svg PUBLIC "-//W3C//DTD SVG 1.1//EN" "http://www.w3.org/Graphics/SVG/1.1/DTD/svg11.dtd">
<svg version="1.1" id="Layer_1" xmlns="http://www.w3.org/2000/svg" xmlns:xlink="http://www.w3.org/1999/xlink" x="0px" y="0px"
	 viewBox="0 0 20 20" style="enable-background:new 0 0 20 20;" xml:space="preserve">
<polygon points="11.37207,8.038757 10,9.410828 8.62793,8.038757 8.038757,8.62793 9.410828,10 8.038757,11.37207 
	8.62793,11.961243 10,10.589172 11.37207,11.961243 11.961243,11.37207 10.589172,10 11.961243,8.62793 "/>
<path d="M10,0C4.477173,0,0,4.477112,0,10c0,5.522827,4.477173,10,10,10s10-4.477173,10-10C20,4.477112,15.522827,0,10,0z
	 M12.5,16.666687l-2.5-2.5l-2.5,2.5V5.833313V5.81665c0-0.911255-0.755371-1.650024-1.666687-1.650024h5
	c0.920471,0,1.666687,0.746216,1.666687,1.666687V16.666687z"/>
</svg>
