<?xml version="1.0" encoding="utf-8"?>
<!-- Generator: Adobe Illustrator 19.1.0, SVG Export Plug-In . SVG Version: 6.00 Build 0)  -->
<svg version="1.1" id="Layer_1" xmlns="http://www.w3.org/2000/svg" xmlns:xlink="http://www.w3.org/1999/xlink" x="0px" y="0px"
	 viewBox="0 0 40 40" enable-background="new 0 0 40 40" xml:space="preserve">
<g>
	<path fill="#CCCCC8" d="M27.5,10c0-4.1-3.4-7.5-7.5-7.5s-7.5,3.4-7.5,7.5c0,0.9,0,4.1,0,5c0,4.1,3.4,7.5,7.5,7.5s7.5-3.4,7.5-7.5
		C27.5,14.1,27.5,10.9,27.5,10z"/>
	<path fill="#CCCCC8" d="M20,40c5.9,0,11.2-2.6,14.9-6.7c-3.1-5-8.6-8.3-14.9-8.3S8.2,28.3,5.1,33.3C8.8,37.4,14.1,40,20,40z"/>
</g>
</svg>
